<?xml version="1.0" encoding="UTF-8"?>
<svg version="1.1" xmlns="http://www.w3.org/2000/svg" width="256" height="256">
<path d="M0 0 C2.375 0.25 2.375 0.25 5 1 C7.43303306 4.41939782 7.20671005 7.66449761 7.125 11.75 C7.10695312 12.92046875 7.08890625 14.0909375 7.0703125 15.296875 C7.04710937 16.18890625 7.02390625 17.0809375 7 18 C7.9590625 18.2165625 7.9590625 18.2165625 8.9375 18.4375 C11 19 11 19 12 20 C12.23880597 27.52238806 12.23880597 27.52238806 11 30 C12.546875 30.0309375 12.546875 30.0309375 14.125 30.0625 C25.918285 31.58623417 38.25844669 40.27666593 45.8046875 49.11328125 C47 51 47 51 46.9375 53.5 C45.83020595 56.45278413 44.26301002 57.85082349 42 60 C42.67804688 60.87398437 43.35609375 61.74796875 44.0546875 62.6484375 C51.38787159 72.27025471 57.46343051 82.25170471 63 93 C63.37237793 93.71881348 63.74475586 94.43762695 64.12841797 95.17822266 C70.0218543 106.69227556 70.0218543 106.69227556 69.95922852 110.43969727 C68.58675927 114.102992 66.0108633 115.30368381 62.734375 117.1015625 C62.10396301 117.46470551 61.47355103 117.82784851 60.82403564 118.20199585 C58.8078831 119.35875722 56.7796053 120.49204034 54.75 121.625 C53.39886611 122.39430125 52.04859448 123.16511903 50.69921875 123.9375 C48.20934565 125.36061898 45.7144971 126.77410067 43.21386719 128.17822266 C42.15329102 128.77940918 41.09271484 129.3805957 40 130 C39.05253906 130.50321777 38.10507813 131.00643555 37.12890625 131.52490234 C34.61928251 132.9175575 34.61928251 132.9175575 34.140625 136.4375 C33 140 33 140 29.734375 142.25 C28.41799945 142.85938427 27.0890766 143.4422656 25.75 144 C24.76580078 144.46599609 24.76580078 144.46599609 23.76171875 144.94140625 C19.44974547 146.85307631 16.54613623 147.24242232 12 146 C12.33 146.99 12.66 147.98 13 149 C13.88378764 159.52047211 11.69296522 166.20778139 5.40234375 174.53125 C4.93957031 175.0159375 4.47679687 175.500625 4 176 C3.34 176 2.68 176 2 176 C2.08154769 180.00079252 2.1943323 184.00013481 2.3125 188 C2.33505859 189.12535156 2.35761719 190.25070313 2.38085938 191.41015625 C2.59262577 197.99416588 3.40694493 202.95866061 6 209 C6.74881359 214.11036657 6.09350246 217.79283665 3 222 C2.67 222.66 2.34 223.32 2 224 C2.33 224.66 2.66 225.32 3 226 C3.93762008 236.40604586 3.93762008 236.40604586 1.125 241.1875 C-2.60894628 244.37233653 -5.67033643 244.15945013 -10.38378906 244.17700195 C-11.14497543 244.18357315 -11.9061618 244.19014435 -12.69041443 244.19691467 C-15.21548558 244.216663 -17.74049718 244.22831456 -20.265625 244.23828125 C-21.12787437 244.24235678 -21.99012375 244.2464323 -22.87850189 244.25063133 C-27.44357566 244.27150012 -32.0086193 244.28579747 -36.57373047 244.29516602 C-41.28599148 244.30622314 -45.99777932 244.34061246 -50.7098732 244.38033772 C-54.33533598 244.40650417 -57.96068614 244.41485794 -61.58623505 244.41844749 C-63.32294658 244.42331458 -65.05965303 244.43493208 -66.79627228 244.45348549 C-69.23077154 244.47787482 -71.66404838 244.47691257 -74.09863281 244.4699707 C-75.16962471 244.48918579 -75.16962471 244.48918579 -76.26225281 244.50878906 C-81.27906549 244.45680117 -84.14946047 243.17172149 -88 240 C-88.99731445 237.67895508 -88.99731445 237.67895508 -89.55078125 235.20703125 C-91.75068984 229.0033573 -95.86230136 227.22522813 -101.54492188 224.38867188 C-102.75798216 223.8191961 -103.97219112 223.25216117 -105.1875 222.6875 C-107.58890941 221.54658471 -109.97256524 220.37933605 -112.35546875 219.19921875 C-113.41403076 218.70252686 -114.47259277 218.20583496 -115.56323242 217.6940918 C-118 216 -118 216 -118.91503906 213.41259766 C-119 211 -119 211 -118.00390625 209.19921875 C-116.66927083 207.79947917 -115.33463542 206.39973958 -114 205 C-114.6496875 204.2265625 -115.299375 203.453125 -115.96875 202.65625 C-123.64284196 193.21027858 -123.64284196 193.21027858 -123.625 188.5 C-123 185 -123 185 -122.43457031 183.0402832 C-121.952615 180.77753008 -122.08945707 179.13808935 -122.421875 176.85546875 C-123.03879918 171.99470326 -123.21858702 167.20899902 -123.25 162.3125 C-123.270625 161.49716797 -123.29125 160.68183594 -123.3125 159.84179688 C-123.35292325 153.59135196 -122.13233679 149.45541812 -117.9375 144.625 C-116 143 -116 143 -114 143 C-114 134.09 -114 125.18 -114 116 C-116.64 115.01 -119.28 114.02 -122 113 C-128.27576005 108.29317996 -130.82158445 100.55772278 -132 93 C-132.63318096 83.02739994 -132.55863834 73.38586092 -126.4375 65.0625 C-122.66879521 61.12629722 -118.32022273 59.72405398 -113 59 C-109.60226344 59.02110395 -106.35116041 59.46650769 -103 60 C-101.18952609 60.24465864 -99.37693471 60.474192 -97.5625 60.6875 C-96.75941406 60.79449219 -95.95632812 60.90148437 -95.12890625 61.01171875 C-92.69431454 61.19351264 -92.69431454 61.19351264 -90 59 C-84.02532039 58.48494141 -78.37388614 59.1425507 -73 62 C-72.67 62.99 -72.34 63.98 -72 65 C-70.9275 65.103125 -69.855 65.20625 -68.75 65.3125 C-65.14179128 65.97400493 -63.63604977 66.57483421 -61 69 C-62.69873131 64.41260481 -65.06126135 60.52626255 -67.66015625 56.40234375 C-71.30296352 49.8707797 -70.97500678 41.38442538 -69.38671875 34.2421875 C-66.42713274 25.92405589 -60.96015836 19.28865129 -53.1875 15.0625 C-45.02322901 11.47516881 -37.2274818 10.91088241 -28.4375 11.0625 C-18.44895602 11.21788708 -9.97937303 9.41479008 -2 3 C-1.34 2.01 -0.68 1.02 0 0 Z M-1 55 C-2.62877677 62.73668965 -3.47354472 69.24773949 0.875 76.125 C1.42285156 76.95386719 1.97070312 77.78273438 2.53515625 78.63671875 C6.48967391 85.01667391 6.48927732 92.6886017 7 100 C13.36559573 99.50873071 19.69264693 99.00344253 26 98 C20.77111249 80.77542937 13.66596485 66.06662549 -1 55 Z " fill="#484759" transform="translate(159,6)"/>
<path d="M0 0 C2.33205836 -0.07712478 4.66778906 -0.07236428 7 0 C8.78515625 1.79296875 8.78515625 1.79296875 10.0625 4.1875 C11.83341858 7.43328694 12.92927664 8.95121271 16.03515625 11.09375 C20.52703822 14.65326296 20.62583369 19.94118372 21.375 25.3125 C21.62056641 26.85260742 21.62056641 26.85260742 21.87109375 28.42382812 C22.27004813 30.94662785 22.6454384 33.47064537 23 36 C24.32 36 25.64 36 27 36 C27.08975098 35.43603516 27.17950195 34.87207031 27.27197266 34.29101562 C27.69968746 31.68957217 28.16205709 29.09539647 28.625 26.5 C28.76550781 25.613125 28.90601563 24.72625 29.05078125 23.8125 C30.21858494 17.45964791 32.29081236 12.56550656 37 8 C37.66 8 38.32 8 39 8 C44.44119104 19.36848271 48.24193173 30.69959924 51 43 C51.27021973 44.06420166 51.27021973 44.06420166 51.54589844 45.14990234 C52.2109012 49.32368852 52.17654503 53.46330563 52.2109375 57.68359375 C52.23899862 59.59961803 52.26766303 61.51563355 52.296875 63.43164062 C52.33814757 66.43790509 52.37505692 69.44400463 52.40136719 72.45043945 C52.42902432 75.36182921 52.47488323 78.2724874 52.5234375 81.18359375 C52.52669037 82.07751328 52.52994324 82.9714328 52.53329468 83.8924408 C52.63487535 89.06944263 53.34662062 92.42558086 56 97 C56.4375 100.125 56.4375 100.125 56 103 C53.85674194 105.80590635 52.6853201 106.88371175 49.16522217 107.48101807 C48.07268127 107.47213562 46.98014038 107.46325317 45.85449219 107.45410156 C44.61350769 107.45379944 43.37252319 107.45349731 42.09393311 107.45318604 C40.74490718 107.43276115 39.39588783 107.41189719 38.046875 107.390625 C36.66254494 107.38316102 35.27820428 107.37746883 33.89385986 107.37347412 C30.25710683 107.35822974 26.62099675 107.31895952 22.98449707 107.2746582 C19.27100318 107.23367892 15.55740501 107.21545751 11.84375 107.1953125 C4.56220746 107.15246301 -2.71880605 107.08422754 -10 107 C-10.1245596 101.62899016 -10.21478702 96.25883989 -10.2746582 90.88671875 C-10.29964279 89.06332738 -10.33364279 87.24003452 -10.37719727 85.41699219 C-10.61903718 75.0264114 -10.80519202 66.98839125 -5 58 C2.23453657 39.9265053 0.22560536 19.07580058 0 0 Z " fill="#F3DFD7" transform="translate(103,119)"/>
<path d="M0 0 C1.16796875 1.6796875 1.16796875 1.6796875 2.1875 3.875 C3.69992058 6.56691839 4.44241773 7.76532733 7.3203125 8.9765625 C9.55270755 9.44543544 11.72836526 9.80203619 14 10 C14.95426032 40.00618575 14.95426032 40.00618575 7 50 C5 52 5 52 1.125 52.375 C-7.33051122 52.18376065 -16.90756928 49.09243072 -23 43 C-23.36760731 40.67182036 -23.70241581 38.3381615 -24 36 C-25.093125 35.731875 -26.18625 35.46375 -27.3125 35.1875 C-32.03796839 33.66573899 -32.03796839 33.66573899 -34 31 C-34.328125 28.5546875 -34.328125 28.5546875 -34.25 25.875 C-34.23453125 24.98554687 -34.2190625 24.09609375 -34.203125 23.1796875 C-34 21 -34 21 -33 20 C-30.625 19.625 -30.625 19.625 -28 20 C-26.1875 22.5 -26.1875 22.5 -25 25 C-22.65851769 25.12213894 -22.65851769 25.12213894 -20 24 C-15.50860345 19.23488953 -14.65808641 14.53479834 -14.2890625 8.203125 C-14 6 -14 6 -12.3125 3.5 C-8.21630623 0.84300944 -4.86900681 0 0 0 Z " fill="#FACBC3" transform="translate(138,47)"/>
<path d="M0 0 C0.18058842 4.60500468 -0.13365246 7.80071804 -2 12 C-2 12.99 -2 13.98 -2 15 C0.31 15.33 2.62 15.66 5 16 C4.505 18.475 4.505 18.475 4 21 C3.42032471 21.0093457 2.84064941 21.01869141 2.2434082 21.02832031 C-0.40106946 21.0822407 -3.04381893 21.16584129 -5.6875 21.25 C-7.05551758 21.27126953 -7.05551758 21.27126953 -8.45117188 21.29296875 C-12.72311639 21.44831219 -15.36472734 21.62140316 -19.09375 23.84375 C-21.4612541 26.52174644 -21.76005369 28.4807874 -22 32 C-23.32 32 -24.64 32 -26 32 C-26.495 31.01 -26.495 31.01 -27 30 C-29.91916538 29.65248031 -32.13195476 29.46719982 -34.69921875 31.04296875 C-37.72703484 33.54293312 -39.80957836 35.26504725 -40.24609375 39.2421875 C-40.37330767 40.99202796 -40.49832149 42.7420298 -40.62109375 44.4921875 C-41.00613097 47.04057815 -41.72413954 48.7788664 -43 51 C-46.875 49.125 -46.875 49.125 -48 48 C-49.4346959 47.90105545 -50.87440397 47.87029265 -52.3125 47.875 C-53.09238281 47.87242188 -53.87226562 47.86984375 -54.67578125 47.8671875 C-56.91251539 47.99500088 -58.85266979 48.38086131 -61 49 C-64.5673406 40.19312788 -66.45583151 33.45849189 -63.1015625 24.2734375 C-59.65229609 17.15473875 -54.28028553 12.80132726 -47 10 C-43.95949486 8.98649829 -41.87646578 8.87558057 -38.6953125 8.859375 C-25.45278597 8.65873066 -14.81429259 8.30351503 -3.234375 1.3359375 C-1 0 -1 0 0 0 Z " fill="#656577" transform="translate(160,15)"/>
<path d="M0 0 C2.47708466 1.01789214 3.21771863 2.05841884 4.67944336 4.28637695 C5.16219727 5.01356934 5.64495117 5.74076172 6.14233398 6.48999023 C6.89740234 7.67117432 6.89740234 7.67117432 7.66772461 8.8762207 C8.19301758 9.68172363 8.71831055 10.48722656 9.25952148 11.31713867 C14.18390201 18.95351855 18.72091592 26.78948737 22.98022461 34.8137207 C23.36694336 35.505625 23.75366211 36.1975293 24.15209961 36.91040039 C24.52850586 37.60810547 24.90491211 38.30581055 25.29272461 39.0246582 C25.63948242 39.6542041 25.98624023 40.28375 26.34350586 40.93237305 C27.17201389 43.38041095 27.04825818 44.46132424 25.98022461 46.8137207 C24.06591797 48.29003906 24.06591797 48.29003906 21.57006836 49.65356445 C20.66192383 50.15952148 19.7537793 50.66547852 18.81811523 51.18676758 C17.86098633 51.70303711 16.90385742 52.21930664 15.91772461 52.7512207 C14.05100795 53.77966127 12.18511036 54.80959006 10.32006836 55.84106445 C9.41756348 56.33590332 8.51505859 56.83074219 7.58520508 57.34057617 C4.4914891 59.0901059 1.50721063 60.97656427 -1.45898438 62.93310547 C-3.01977539 63.8137207 -3.01977539 63.8137207 -5.01977539 63.8137207 C-6.35310872 55.8137207 -7.68644206 47.8137207 -9.01977539 39.8137207 C-2.08977539 38.8237207 -2.08977539 38.8237207 4.98022461 37.8137207 C5.31022461 36.4937207 5.64022461 35.1737207 5.98022461 33.8137207 C2.68022461 33.8137207 -0.61977539 33.8137207 -4.01977539 33.8137207 C-4.57407227 32.48856445 -5.12836914 31.1634082 -5.69946289 29.7980957 C-6.43116228 28.05327408 -7.16293706 26.30848406 -7.89477539 24.5637207 C-8.25958008 23.69102539 -8.62438477 22.81833008 -9.00024414 21.91918945 C-9.35473633 21.07485352 -9.70922852 20.23051758 -10.07446289 19.3605957 C-10.39914551 18.58554688 -10.72382813 17.81049805 -11.05834961 17.01196289 C-11.98995999 14.80322935 -11.98995999 14.80322935 -13.14135742 12.71704102 C-14.01977539 10.8137207 -14.01977539 10.8137207 -14.01977539 7.8137207 C-11.53540039 5.7355957 -11.53540039 5.7355957 -8.26977539 3.5637207 C-7.20243164 2.83668945 -6.13508789 2.1096582 -5.03540039 1.3605957 C-2.01977539 -0.1862793 -2.01977539 -0.1862793 0 0 Z " fill="#FACAC2" transform="translate(195.019775390625,69.186279296875)"/>
<path d="M0 0 C17.45390951 0.03395448 28.84296776 2.45851626 41.95043945 14.38134766 C43.81762695 16.69384766 43.81762695 16.69384766 44.95043945 18.38134766 C40.22568888 22.13604075 35.44794427 25.82011987 30.57543945 29.38134766 C29.76333008 29.97947266 28.9512207 30.57759766 28.11450195 31.19384766 C27.40036133 31.58572266 26.6862207 31.97759766 25.95043945 32.38134766 C22.11904387 31.10421579 21.15290273 29.37090235 18.70043945 26.19384766 C12.77998052 18.80526843 8.17340296 13.78921342 -1.35424805 11.93212891 C-2.56467773 11.69042969 -2.56467773 11.69042969 -3.79956055 11.44384766 C-4.5575293 11.31107422 -5.31549805 11.17830078 -6.09643555 11.04150391 C-8.04956055 10.38134766 -8.04956055 10.38134766 -10.04956055 7.38134766 C-10.29956055 4.81884766 -10.29956055 4.81884766 -10.04956055 2.38134766 C-7.03326384 -0.63494905 -4.12837963 0.06123922 0 0 Z " fill="#B76E62" transform="translate(153.049560546875,40.61865234375)"/>
<path d="M0 0 C0.74141888 2.92119041 1.4755254 5.84388942 2.19921875 8.76953125 C2.6692507 10.66570893 3.14736181 12.55997489 3.64453125 14.44921875 C5.03473524 20.02003616 5.21524759 25.27202248 5 31 C4.22914063 31.30292969 3.45828125 31.60585937 2.6640625 31.91796875 C1.66117188 32.33691406 0.65828125 32.75585938 -0.375 33.1875 C-1.37273437 33.59355469 -2.37046875 33.99960938 -3.3984375 34.41796875 C-6.46549003 36.28306826 -7.05249189 37.6038113 -8 41 C-8.99 41 -9.98 41 -11 41 C-11.23074219 39.90042969 -11.46148437 38.80085938 -11.69921875 37.66796875 C-14.1734144 26.28976314 -17.40962835 16.34663205 -24.08203125 6.65625 C-25 5 -25 5 -25 2 C-16.6030674 0.62707087 -8.51372785 -0.31274919 0 0 Z " fill="#F8EFE7" transform="translate(181,111)"/>
<path d="M0 0 C1.33984375 1.29296875 1.33984375 1.29296875 2.9375 3.1875 C5.19794644 5.86672389 7.46481757 8.53105855 9.80078125 11.14453125 C18.74202295 21.23976865 21.61411066 27.35309655 21 41 C19.37581255 41.08090971 17.75048255 41.13914995 16.125 41.1875 C15.22007813 41.22230469 14.31515625 41.25710937 13.3828125 41.29296875 C12.20332031 41.14794922 12.20332031 41.14794922 11 41 C9 38 9 38 9.0859375 34.703125 C7.77586195 30.23567312 6.92848883 29.96778537 2.9765625 27.796875 C0.87204684 26.75524604 -1.24594108 25.74049743 -3.375 24.75 C-5.48924115 23.72862746 -7.60132296 22.70276976 -9.7109375 21.671875 C-10.65243652 21.2294043 -11.59393555 20.78693359 -12.56396484 20.33105469 C-14.82930024 19.09327071 -16.30978477 17.92663364 -18 16 C-15.38308836 13.32529045 -12.75518292 10.66165519 -10.125 8 C-9.00544922 6.8553125 -9.00544922 6.8553125 -7.86328125 5.6875 C-7.14785156 4.965625 -6.43242188 4.24375 -5.6953125 3.5 C-5.03547363 2.8296875 -4.37563477 2.159375 -3.69580078 1.46875 C-2 0 -2 0 0 0 Z " fill="#B26B5E" transform="translate(66,202)"/>
<path d="M0 0 C3.36698436 3.15654784 6.40185916 6.53124325 9.375 10.0625 C10.08398438 10.89910156 10.79296875 11.73570312 11.5234375 12.59765625 C13 15 13 15 12.9128418 16.8112793 C11.58831486 19.98709743 9.30092999 22.06759719 6.87109375 24.421875 C6.36199966 24.92672424 5.85290558 25.43157349 5.3283844 25.95172119 C3.7050088 27.55833979 2.071503 29.15419822 0.4375 30.75 C-0.6667005 31.83914984 -1.77022445 32.92898605 -2.87304688 34.01953125 C-5.5742529 36.6877076 -8.28459063 39.34628291 -11 42 C-20.69488371 32.31595958 -20.69488371 32.31595958 -21.51171875 28.79296875 C-20.70135474 24.36998962 -17.88566992 21.6555915 -15 18.3125 C-13.80830717 16.89216748 -12.61690077 15.47159459 -11.42578125 14.05078125 C-10.84135254 13.36193848 -10.25692383 12.6730957 -9.65478516 11.96337891 C-7.44927522 9.34657293 -5.31552772 6.68016464 -3.1875 4 C-2.56230469 3.21625 -1.93710937 2.4325 -1.29296875 1.625 C-0.86628906 1.08875 -0.43960938 0.5525 0 0 Z " fill="#FACBC4" transform="translate(63,166)"/>
<path d="M0 0 C3.3445367 0.2557191 6.66903375 0.60611932 10 1 C11.27875 1.144375 12.5575 1.28875 13.875 1.4375 C18.07281992 3.53640996 18.77092739 5.69010651 20.22265625 10.0390625 C22.93605209 20.37450997 23.26410449 30.39180309 23 41 C22.23816406 41.06058594 21.47632812 41.12117188 20.69140625 41.18359375 C14.44640026 41.69036702 8.22331399 42.2739467 2 43 C2.21148682 42.47792969 2.42297363 41.95585938 2.64086914 41.41796875 C4.96584004 35.1834709 5.48778791 29.61971773 5.4375 23 C5.45748047 22.06671875 5.47746094 21.1334375 5.49804688 20.171875 C5.49340561 13.52557819 3.99697177 8.87012068 1 3 C0.67 2.01 0.34 1.02 0 0 Z " fill="#80A4B3" transform="translate(49,72)"/>
<path d="M0 0 C0.66 0 1.32 0 2 0 C2 14.85 2 29.7 2 45 C0.68 45.66 -0.64 46.32 -2 47 C-8.01915657 39.34816082 -14.03560785 31.69467656 -20 24 C-17.07461069 19.33766079 -13.78899423 15.41875755 -10 11.4375 C-8.95672975 10.33354448 -7.91503351 9.22809912 -6.875 8.12109375 C-6.38257812 7.59757324 -5.89015625 7.07405273 -5.3828125 6.53466797 C-4.10326464 5.11460478 -2.92115141 3.60836024 -1.75 2.09765625 C-1.1725 1.40542969 -0.595 0.71320313 0 0 Z " fill="#F1E3DC" transform="translate(82,132)"/>
<path d="M0 0 C4.07005764 1.84121655 5.65628398 5.29549988 7.625 9.1875 C9.00064382 13.31443147 8.80923809 17.17796343 8.8125 21.5 C8.82474609 22.34240234 8.83699219 23.18480469 8.84960938 24.05273438 C8.86319773 29.84590375 8.15989652 34.4100682 5.3125 39.5625 C3.625 41.1875 3.625 41.1875 1.25 41.9375 C-2.4619473 40.87694363 -3.36161114 38.75423936 -5.26171875 35.5234375 C-9.46968556 26.6940896 -9.98605024 16.30824789 -7.0625 6.9375 C-5.71569038 3.26049594 -4.14609862 0.32732358 0 0 Z " fill="#5A7D89" transform="translate(41.375,72.8125)"/>
<path d="M0 0 C4.34671293 1.41367259 8.6135639 2.97260641 12.875 4.625 C14.60363281 5.29402344 14.60363281 5.29402344 16.3671875 5.9765625 C17.23601562 6.31429687 18.10484375 6.65203125 19 7 C19.07347656 8.03060547 19.07347656 8.03060547 19.1484375 9.08203125 C19.22320312 9.98308594 19.29796875 10.88414063 19.375 11.8125 C19.44460937 12.70582031 19.51421875 13.59914063 19.5859375 14.51953125 C19.86645036 17.24398499 19.86645036 17.24398499 22 20 C22.52567272 23.4168727 22.81828011 25.86545212 20.7265625 28.765625 C19.65235599 29.92891205 18.56616679 31.08123926 17.46875 32.22265625 C15.208092 34.95829292 14.70223658 37.55904076 14 41 C13.34 40.67 12.68 40.34 12 40 C11.40644386 37.35139573 11.25790731 34.70802678 11 32 C10.29875 31.814375 9.5975 31.62875 8.875 31.4375 C4.80470111 29.40235055 2.23112334 26.99365031 0 23 C-0.71159223 18.98786921 -0.57149604 15.12089894 -0.375 11.0625 C-0.34792969 9.99708984 -0.32085937 8.93167969 -0.29296875 7.83398438 C-0.22265164 5.22053177 -0.12430438 2.61134825 0 0 Z " fill="#FAD6CF" transform="translate(115,97)"/>
<path d="M0 0 C1.8125 0.125 1.8125 0.125 4 1 C5.73081744 3.94880008 6.91988152 6.75964457 8 10 C10.31 10.66 12.62 11.32 15 12 C15 20.91 15 29.82 15 39 C3.75 40.125 3.75 40.125 -1 38 C-1.01458252 37.36610352 -1.02916504 36.73220703 -1.04418945 36.07910156 C-1.32325198 19.2896108 -1.32325198 19.2896108 -5 3 C-3.68 3 -2.36 3 -1 3 C-0.67 2.01 -0.34 1.02 0 0 Z " fill="#81A5B4" transform="translate(95,75)"/>
<path d="M0 0 C10.00976043 0.03451642 10.00976043 0.03451642 13.5 3.4375 C17.46817704 12.86192046 19.18250717 21.97997771 19.125 32.1875 C19.13080078 33.23454102 19.13080078 33.23454102 19.13671875 34.30273438 C19.1203974 42.8796026 19.1203974 42.8796026 16.25 45.75 C13.57322385 47.23709786 12.01858275 47.39718194 9 47 C6.5571886 44.5571886 6.75123916 43.90471046 6.7265625 40.5546875 C6.70859619 39.64960449 6.69062988 38.74452148 6.67211914 37.81201172 C6.65656982 36.84279785 6.64102051 35.87358398 6.625 34.875 C6.32447412 24.68708941 5.53958558 14.03018035 0.87109375 4.7578125 C0 3 0 3 0 0 Z " fill="#597C88" transform="translate(70,71)"/>
<path d="M0 0 C2.90605994 2.90605994 1.32379218 13.49690586 1.35009766 17.60375977 C1.36643289 19.46261307 1.39341315 21.32140978 1.43212891 23.17993164 C1.72163355 37.16552327 0.97436946 51.4563017 -6 64 C-6.66 64 -7.32 64 -8 64 C-8.33 43.54 -8.66 23.08 -9 2 C-5.2524627 0.12623135 -3.96403081 -0.3214079 0 0 Z " fill="#636375" transform="translate(97,118)"/>
<path d="M0 0 C6.77202335 2.46255395 10.23274871 9.99583148 13.26928711 16.11450195 C18.86547785 28.25349492 21.46871687 42.69929915 19.75 56 C18.34765625 58.94921875 18.34765625 58.94921875 16.75 61 C16.09 61 15.43 61 14.75 61 C14.61464844 59.94425781 14.47929687 58.88851562 14.33984375 57.80078125 C12.02619511 41.32428426 7.24880345 25.72879101 -0.67260742 11.06005859 C-2.47801736 7.71121965 -3.74795979 4.78681761 -4.25 1 C-2.25 0 -2.25 0 0 0 Z " fill="#636375" transform="translate(145.25,112)"/>
<path d="M0 0 C10.23 0 20.46 0 31 0 C31 4.29 31 8.58 31 13 C20.77 13 10.54 13 0 13 C0 8.71 0 4.42 0 0 Z " fill="#646477" transform="translate(93,231)"/>
<path d="M0 0 C0.04939662 3.95096978 0.08571755 7.9018203 0.10986328 11.85302734 C0.12488107 13.8591136 0.15028981 15.86511324 0.17578125 17.87109375 C0.18222656 19.12792969 0.18867187 20.38476562 0.1953125 21.6796875 C0.20578613 22.84226074 0.21625977 24.00483398 0.22705078 25.20263672 C0 28 0 28 -2 30 C-4.3828125 30.1953125 -4.3828125 30.1953125 -7.125 30.125 C-8.49011719 30.09792969 -8.49011719 30.09792969 -9.8828125 30.0703125 C-10.58148438 30.04710937 -11.28015625 30.02390625 -12 30 C-12.02911003 26.10418244 -12.04683587 22.208393 -12.0625 18.3125 C-12.07087891 17.20970703 -12.07925781 16.10691406 -12.08789062 14.97070312 C-12.09111328 13.90400391 -12.09433594 12.83730469 -12.09765625 11.73828125 C-12.10289307 10.75899658 -12.10812988 9.77971191 -12.11352539 8.77075195 C-12.00308543 6.07530428 -11.60534166 3.62454361 -11 1 C-7.32238669 -0.17683626 -3.83330292 -0.03578346 0 0 Z " fill="#7397A4" transform="translate(63,119)"/>
<path d="M0 0 C3.03988949 2.36669597 3.93396165 3.5067716 4.45410156 7.39160156 C4.42268066 9.37111816 4.42268066 9.37111816 4.390625 11.390625 C4.38496521 12.09523865 4.37930542 12.79985229 4.37347412 13.52581787 C4.35115078 15.76791428 4.30096754 18.00838988 4.25 20.25 C4.22992952 21.77341435 4.2116797 23.29685386 4.1953125 24.8203125 C4.15130118 28.5473983 4.08230372 32.27354087 4 36 C0.57980888 32.61951671 -2.55818245 29.19420316 -5.5625 25.4375 C-8.2313191 22.10263245 -10.92326459 18.96510782 -14 16 C-12.34136495 11.67495164 -9.128959 8.90581175 -5.875 5.75 C-5.31167969 5.19570312 -4.74835938 4.64140625 -4.16796875 4.0703125 C-2.78313972 2.70895515 -1.39216796 1.35385141 0 0 Z " fill="#4B697E" transform="translate(83,183)"/>
<path d="M0 0 C0.89203125 0.04511719 1.7840625 0.09023437 2.703125 0.13671875 C3.37859375 0.19472656 4.0540625 0.25273437 4.75 0.3125 C6.07 2.9525 7.39 5.5925 8.75 8.3125 C7.0219625 10.52172483 5.29260488 12.72989506 3.5625 14.9375 C3.07974609 15.55496094 2.59699219 16.17242187 2.09960938 16.80859375 C-0.95241642 20.70043873 -4.06542961 24.52827559 -7.25 28.3125 C-9.78499553 23.84117248 -9.61736771 19.90849833 -9.625 14.875 C-9.64949219 14.02873047 -9.67398438 13.18246094 -9.69921875 12.31054688 C-9.71830238 8.24891459 -9.5454506 5.84894026 -7.5546875 2.234375 C-4.77728567 -0.08169568 -3.56033202 -0.23423237 0 0 Z " fill="#698D99" transform="translate(51.25,153.6875)"/>
<path d="M0 0 C3.13693332 2.56658181 3.94745635 5.13766171 5 9 C5.23046875 12.61328125 5.23046875 12.61328125 5.1875 16.3125 C5.18105469 17.54613281 5.17460937 18.77976562 5.16796875 20.05078125 C5 23 5 23 4 24 C2.33570949 24.09823937 0.66718069 24.12973631 -1 24.125 C-2.36125 24.12886719 -2.36125 24.12886719 -3.75 24.1328125 C-6 24 -6 24 -7 23 C-8.51928038 22.92820036 -10.04167482 22.91607993 -11.5625 22.9375 C-12.80193359 22.95103516 -12.80193359 22.95103516 -14.06640625 22.96484375 C-14.70449219 22.97644531 -15.34257812 22.98804687 -16 23 C-16 21.68 -16 20.36 -16 19 C-15.41992188 18.92265625 -14.83984375 18.8453125 -14.2421875 18.765625 C-9.96109846 17.83311056 -7.66266993 16.95309935 -5.1015625 13.26953125 C-2.9471525 8.9554566 -1.00397548 4.73465709 0 0 Z " fill="#577986" transform="translate(155,85)"/>
<path d="M0 0 C3.10645039 0.73963104 4.75798511 1.96250858 6.66796875 4.52734375 C8.73703517 9.06239953 8.41603233 13.79846678 7.625 18.625 C5.95552084 22.87848918 3.85641052 26.39358948 0.625 29.625 C-2 29.25 -2 29.25 -4.375 28.625 C-4.705 26.645 -5.035 24.665 -5.375 22.625 C-3.065 22.625 -0.755 22.625 1.625 22.625 C2.94729189 19.98041621 2.72177194 17.94738699 2.6875 15 C2.67396484 13.49566406 2.67396484 13.49566406 2.66015625 11.9609375 C2.64855469 11.19007812 2.63695312 10.41921875 2.625 9.625 C1.305 9.295 -0.015 8.965 -1.375 8.625 C-1.705 10.935 -2.035 13.245 -2.375 15.625 C-3.035 15.625 -3.695 15.625 -4.375 15.625 C-5.91783245 10.99650265 -6.28743466 6.54591508 -4.1875 2.125 C-2.375 0.625 -2.375 0.625 0 0 Z " fill="#7EA3B1" transform="translate(40.375,79.375)"/>
<path d="M0 0 C4.35198929 1.4506631 8.6030936 2.9685465 12.875 4.625 C14.60363281 5.29402344 14.60363281 5.29402344 16.3671875 5.9765625 C17.23601562 6.31429687 18.10484375 6.65203125 19 7 C19 10.3 19 13.6 19 17 C12.49628031 15.69925606 7.7074133 13.38877665 2 10 C1.67 14.29 1.34 18.58 1 23 C0.67 23 0.34 23 0 23 C0 15.41 0 7.82 0 0 Z " fill="#DE8684" transform="translate(115,97)"/>
<path d="M0 0 C4.62 0 9.24 0 14 0 C14 4.29 14 8.58 14 13 C9.38 13 4.76 13 0 13 C0 8.71 0 4.42 0 0 Z " fill="#EDA555" transform="translate(129,231)"/>
<path d="M0 0 C5.87915065 0 6.57056944 0.08590095 11 3 C13.19130534 3.69579454 13.19130534 3.69579454 15 4 C13.38071731 7.90478455 10.80673954 10.56172556 7.9375 13.625 C4.58466353 17.04209753 4.58466353 17.04209753 2 21 C1.34 21 0.68 21 0 21 C0 14.07 0 7.14 0 0 Z " fill="#547383" transform="translate(68,119)"/>
<path d="M0 0 C3.36698436 3.15654784 6.40185916 6.53124325 9.375 10.0625 C10.08398438 10.89910156 10.79296875 11.73570312 11.5234375 12.59765625 C13 15 13 15 12.9765625 17.12109375 C11.74093474 19.49844157 10.22928917 20.56174893 8 22 C7.57589844 21.49210937 7.15179688 20.98421875 6.71484375 20.4609375 C2.77219118 15.83373646 -1.29100134 11.84408054 -6 8 C-4.02 5.36 -2.04 2.72 0 0 Z " fill="#DE8280" transform="translate(63,166)"/>
<path d="M0 0 C2.17485897 1.17327918 3.15392182 2.35370029 4.53125 4.3984375 C4.95921875 5.01589844 5.3871875 5.63335937 5.828125 6.26953125 C6.78125 7.9609375 6.78125 7.9609375 6.78125 9.9609375 C2.42792264 10.80116938 -1.66317519 11.06864745 -6.09375 11.0234375 C-7.24617187 11.01441406 -8.39859375 11.00539063 -9.5859375 10.99609375 C-10.45476562 10.98449219 -11.32359375 10.97289063 -12.21875 10.9609375 C-12.54875 11.6209375 -12.87875 12.2809375 -13.21875 12.9609375 C-13.54875 11.3109375 -13.87875 9.6609375 -14.21875 7.9609375 C-12.3129507 6.59151882 -10.39368427 5.24082587 -8.46875 3.8984375 C-7.40140625 3.14433594 -6.3340625 2.39023438 -5.234375 1.61328125 C-2.21875 -0.0390625 -2.21875 -0.0390625 0 0 Z " fill="#DF8381" transform="translate(195.21875,69.0390625)"/>
<path d="M0 0 C2.33294775 -0.04241723 4.66702567 -0.04092937 7 0 C8.58894072 1.58894072 8.16998411 3.24801424 8.1875 5.4375 C8.20167969 6.24058594 8.21585938 7.04367188 8.23046875 7.87109375 C8 10 8 10 6 12 C4.02 12 2.04 12 0 12 C0 8.04 0 4.08 0 0 Z " fill="#606072" transform="translate(148,232)"/>
<path d="M0 0 C0 1.98 0 3.96 0 6 C-3.63 6 -7.26 6 -11 6 C-11 4.35 -11 2.7 -11 1 C-7.32589215 -0.17571451 -3.83070817 -0.07366746 0 0 Z " fill="#567685" transform="translate(63,119)"/>
<path d="M0 0 C2.97 0.33 5.94 0.66 9 1 C9 5.29 9 9.58 9 14 C8.67 14 8.34 14 8 14 C8 11.69 8 9.38 8 7 C7.236875 6.773125 6.47375 6.54625 5.6875 6.3125 C2.45263699 4.73268318 1.58358642 3.16717283 0 0 Z " fill="#CF8383" transform="translate(143,56)"/>
<path d="M0 0 C1.65 0.33 3.3 0.66 5 1 C4.67 2.32 4.34 3.64 4 5 C2.35 4.67 0.7 4.34 -1 4 C-0.67 2.68 -0.34 1.36 0 0 Z " fill="#EA8F8B" transform="translate(130,68)"/>
<path d="M0 0 C1.32 0.66 2.64 1.32 4 2 C3.34 3.32 2.68 4.64 2 6 C0.68 5.34 -0.64 4.68 -2 4 C-1.34 2.68 -0.68 1.36 0 0 Z " fill="#D2BAB3" transform="translate(115,146)"/>
<path d="M0 0 C1.32 0.66 2.64 1.32 4 2 C3.34 3.32 2.68 4.64 2 6 C0.68 5.34 -0.64 4.68 -2 4 C-1.34 2.68 -0.68 1.36 0 0 Z " fill="#D2BBB4" transform="translate(113,136)"/>
<path d="M0 0 C1.98 0.495 1.98 0.495 4 1 C4 2.32 4 3.64 4 5 C2.35 4.67 0.7 4.34 -1 4 C-0.67 2.68 -0.34 1.36 0 0 Z " fill="#E88986" transform="translate(142,68)"/>
<path d="M0 0 C0.66 0.66 1.32 1.32 2 2 C-0.31 4.31 -2.62 6.62 -5 9 C-5.66 8.67 -6.32 8.34 -7 8 C-4.69 5.36 -2.38 2.72 0 0 Z " fill="#DFD6D1" transform="translate(80,134)"/>
</svg>
